<svg width="161" height="32" viewBox="0 0 161 32" fill="none" xmlns="http://www.w3.org/2000/svg">
<rect width="161" height="32" rx="4" fill="#FF6633"/>
<path d="M12.7788 19.784C13.8454 19.784 14.5654 19.368 14.9388 18.536C15.0134 18.376 15.0881 18.264 15.1628 18.2C15.2374 18.136 15.3388 18.104 15.4668 18.104H15.9468C16.0641 18.104 16.1654 18.1467 16.2508 18.232C16.3361 18.3067 16.3788 18.3973 16.3788 18.504C16.3788 18.8667 16.2348 19.256 15.9468 19.672C15.6588 20.088 15.2428 20.44 14.6988 20.728C14.1548 21.016 13.5148 21.16 12.7788 21.16C12.0214 21.16 11.3654 21 10.8108 20.68C10.2561 20.36 9.82942 19.9227 9.53075 19.368C9.23208 18.8027 9.06675 18.1733 9.03475 17.48C9.02408 17.352 9.01875 17.1067 9.01875 16.744C9.01875 16.488 9.02408 16.3067 9.03475 16.2C9.13075 15.112 9.49875 14.2267 10.1388 13.544C10.7788 12.8613 11.6588 12.52 12.7788 12.52C13.5148 12.52 14.1494 12.664 14.6828 12.952C15.2268 13.2293 15.6374 13.576 15.9148 13.992C16.2028 14.3973 16.3574 14.7813 16.3788 15.144C16.3894 15.2613 16.3468 15.3627 16.2508 15.448C16.1654 15.5333 16.0641 15.576 15.9468 15.576H15.4668C15.3388 15.576 15.2374 15.544 15.1628 15.48C15.0881 15.416 15.0134 15.304 14.9388 15.144C14.5654 14.312 13.8454 13.896 12.7788 13.896C12.1921 13.896 11.6801 14.0933 11.2428 14.488C10.8054 14.8827 10.5548 15.48 10.4908 16.28C10.4801 16.3973 10.4748 16.5893 10.4748 16.856C10.4748 17.1013 10.4801 17.2827 10.4908 17.4C10.5654 18.2 10.8161 18.7973 11.2428 19.192C11.6801 19.5867 12.1921 19.784 12.7788 19.784ZM23.0778 12.952C23.2804 12.7707 23.4884 12.68 23.7018 12.68H24.4698C24.5764 12.68 24.6671 12.7173 24.7418 12.792C24.8164 12.8667 24.8538 12.9573 24.8538 13.064C24.8538 13.1813 24.7951 13.288 24.6778 13.384L20.8058 16.776L25.0618 20.312C25.1684 20.3973 25.2218 20.4987 25.2218 20.616C25.2218 20.7227 25.1844 20.8133 25.1098 20.888C25.0351 20.9627 24.9444 21 24.8378 21H24.0058C23.7818 21 23.5631 20.9093 23.3498 20.728L19.7498 17.736V20.568C19.7498 20.6853 19.7071 20.7867 19.6218 20.872C19.5364 20.9573 19.4351 21 19.3178 21H18.7258C18.6084 21 18.5071 20.9573 18.4218 20.872C18.3364 20.7867 18.2938 20.6853 18.2938 20.568V13.112C18.2938 12.9947 18.3364 12.8933 18.4218 12.808C18.5071 12.7227 18.6084 12.68 18.7258 12.68H19.3178C19.4351 12.68 19.5364 12.7227 19.6218 12.808C19.7071 12.8933 19.7498 12.9947 19.7498 13.112V15.88L23.0778 12.952ZM33.0531 21C32.9358 21 32.8345 20.9573 32.7491 20.872C32.6638 20.7867 32.6211 20.6853 32.6211 20.568V15.208L27.9651 20.824C27.8798 20.9413 27.7625 21 27.6131 21H27.0691C26.9518 21 26.8505 20.9573 26.7651 20.872C26.6905 20.7867 26.6531 20.6853 26.6531 20.568V13.112C26.6531 12.9947 26.6958 12.8933 26.7811 12.808C26.8665 12.7227 26.9678 12.68 27.0851 12.68H27.6771C27.7945 12.68 27.8958 12.7227 27.9811 12.808C28.0665 12.8933 28.1091 12.9947 28.1091 13.112V18.52L32.7651 12.856C32.8185 12.792 32.8665 12.7493 32.9091 12.728C32.9625 12.696 33.0318 12.68 33.1171 12.68H33.6451C33.7625 12.68 33.8638 12.7227 33.9491 12.808C34.0345 12.8933 34.0771 12.9947 34.0771 13.112V20.568C34.0771 20.6853 34.0345 20.7867 33.9491 20.872C33.8638 20.9573 33.7625 21 33.6451 21H33.0531ZM37.2173 13.112C37.2173 12.9947 37.2546 12.8933 37.3293 12.808C37.4146 12.7227 37.5159 12.68 37.6332 12.68H42.0973C42.2146 12.68 42.3159 12.7227 42.4013 12.808C42.4866 12.8933 42.5293 12.9947 42.5293 13.112V19.624H42.8333C42.9506 19.624 43.0519 19.6667 43.1373 19.752C43.2226 19.8373 43.2653 19.9387 43.2653 20.056V22.328C43.2653 22.4453 43.2226 22.5467 43.1373 22.632C43.0519 22.7173 42.9506 22.76 42.8333 22.76H42.2413C42.1239 22.76 42.0226 22.7173 41.9373 22.632C41.8519 22.5467 41.8093 22.4453 41.8093 22.328V21H37.0733V22.328C37.0733 22.4453 37.0306 22.5467 36.9453 22.632C36.8599 22.7173 36.7586 22.76 36.6413 22.76H36.0493C35.9319 22.76 35.8306 22.7173 35.7453 22.632C35.6599 22.5467 35.6173 22.4453 35.6173 22.328V20.056C35.6173 19.9387 35.6599 19.8373 35.7453 19.752C35.8306 19.6667 35.9319 19.624 36.0493 19.624H36.4173C36.7373 19.624 36.9506 19.4853 37.0573 19.208C37.1639 18.9307 37.2173 18.5413 37.2173 18.04V13.112ZM38.6733 14.056V18.296C38.6733 18.8827 38.5719 19.3253 38.3693 19.624H41.0733V14.056H38.6733ZM49.8746 12.952C50.0773 12.7707 50.2853 12.68 50.4986 12.68H51.2666C51.3733 12.68 51.464 12.7173 51.5386 12.792C51.6133 12.8667 51.6506 12.9573 51.6506 13.064C51.6506 13.1813 51.592 13.288 51.4746 13.384L47.6026 16.776L51.8586 20.312C51.9653 20.3973 52.0186 20.4987 52.0186 20.616C52.0186 20.7227 51.9813 20.8133 51.9066 20.888C51.832 20.9627 51.7413 21 51.6346 21H50.8026C50.5786 21 50.36 20.9093 50.1466 20.728L46.5466 17.736V20.568C46.5466 20.6853 46.504 20.7867 46.4186 20.872C46.3333 20.9573 46.232 21 46.1146 21H45.5226C45.4053 21 45.304 20.9573 45.2186 20.872C45.1333 20.7867 45.0906 20.6853 45.0906 20.568V13.112C45.0906 12.9947 45.1333 12.8933 45.2186 12.808C45.304 12.7227 45.4053 12.68 45.5226 12.68H46.1146C46.232 12.68 46.3333 12.7227 46.4186 12.808C46.504 12.8933 46.5466 12.9947 46.5466 13.112V15.88L49.8746 12.952ZM58.394 15.736V15.528C58.394 15.0053 58.218 14.6053 57.866 14.328C57.5247 14.04 57.0767 13.896 56.522 13.896C56.0953 13.896 55.7593 13.9707 55.514 14.12C55.2793 14.2587 55.0553 14.472 54.842 14.76C54.778 14.8453 54.7087 14.904 54.634 14.936C54.5593 14.968 54.458 14.984 54.33 14.984H53.85C53.7327 14.984 53.626 14.9413 53.53 14.856C53.4447 14.7707 53.4073 14.6693 53.418 14.552C53.45 14.232 53.6047 13.9173 53.882 13.608C54.17 13.288 54.5487 13.0267 55.018 12.824C55.4873 12.6213 55.9887 12.52 56.522 12.52C57.514 12.52 58.314 12.7973 58.922 13.352C59.5407 13.9067 59.85 14.6853 59.85 15.688V20.568C59.85 20.6853 59.8073 20.7867 59.722 20.872C59.6367 20.9573 59.5353 21 59.418 21H58.826C58.7087 21 58.6073 20.9573 58.522 20.872C58.4367 20.7867 58.394 20.6853 58.394 20.568V19.912C58.2233 20.296 57.8607 20.6 57.306 20.824C56.7513 21.048 56.1967 21.16 55.642 21.16C55.098 21.16 54.6127 21.064 54.186 20.872C53.7593 20.6693 53.4287 20.3973 53.194 20.056C52.97 19.7147 52.858 19.3307 52.858 18.904C52.858 18.104 53.1567 17.48 53.754 17.032C54.3513 16.5733 55.146 16.264 56.138 16.104L58.394 15.736ZM58.394 17.016L56.506 17.32C55.8127 17.4267 55.274 17.6027 54.89 17.848C54.506 18.0827 54.314 18.3813 54.314 18.744C54.314 19.0107 54.4367 19.2507 54.682 19.464C54.9273 19.6773 55.3007 19.784 55.802 19.784C56.57 19.784 57.194 19.5653 57.674 19.128C58.154 18.6907 58.394 18.12 58.394 17.416V17.016ZM68.9066 19.784C70.176 19.784 70.8106 19.4053 70.8106 18.648C70.8106 18.264 70.6453 17.9813 70.3146 17.8C69.9946 17.608 69.568 17.512 69.0346 17.512H67.7866C67.6693 17.512 67.568 17.4693 67.4826 17.384C67.3973 17.2987 67.3546 17.1973 67.3546 17.08V16.568C67.3546 16.4507 67.3973 16.3493 67.4826 16.264C67.568 16.1787 67.6693 16.136 67.7866 16.136H69.0506C69.52 16.136 69.904 16.04 70.2026 15.848C70.512 15.656 70.6666 15.3787 70.6666 15.016C70.6666 14.6427 70.5013 14.3653 70.1706 14.184C69.8506 13.992 69.4293 13.896 68.9066 13.896C68.4266 13.896 68.0533 13.9707 67.7866 14.12C67.52 14.2587 67.3066 14.4933 67.1466 14.824C67.008 15.112 66.832 15.256 66.6186 15.256H66.1386C66.0213 15.256 65.9146 15.2133 65.8186 15.128C65.7333 15.0427 65.696 14.9413 65.7066 14.824C65.728 14.4187 65.8613 14.04 66.1066 13.688C66.3626 13.336 66.7306 13.0533 67.2106 12.84C67.6906 12.6267 68.256 12.52 68.9066 12.52C69.8453 12.52 70.6133 12.7333 71.2106 13.16C71.8186 13.5867 72.1226 14.2053 72.1226 15.016C72.1226 15.7307 71.872 16.312 71.3706 16.76C71.968 17.1973 72.2666 17.8267 72.2666 18.648C72.2666 19.5333 71.9573 20.1733 71.3386 20.568C70.7306 20.9627 69.92 21.16 68.9066 21.16C67.8506 21.16 67.0346 20.9573 66.4586 20.552C65.8826 20.136 65.5786 19.624 65.5466 19.016C65.536 18.8987 65.5733 18.7973 65.6586 18.712C65.7546 18.6267 65.8613 18.584 65.9786 18.584H66.4586C66.576 18.584 66.672 18.616 66.7466 18.68C66.8213 18.7333 66.9013 18.8453 66.9866 19.016C67.1466 19.3253 67.3813 19.5333 67.6906 19.64C68 19.736 68.4053 19.784 68.9066 19.784ZM79.2378 15.736V15.528C79.2378 15.0053 79.0618 14.6053 78.7098 14.328C78.3684 14.04 77.9204 13.896 77.3658 13.896C76.9391 13.896 76.6031 13.9707 76.3578 14.12C76.1231 14.2587 75.8991 14.472 75.6858 14.76C75.6218 14.8453 75.5524 14.904 75.4778 14.936C75.4031 14.968 75.3018 14.984 75.1738 14.984H74.6938C74.5764 14.984 74.4698 14.9413 74.3738 14.856C74.2884 14.7707 74.2511 14.6693 74.2618 14.552C74.2938 14.232 74.4484 13.9173 74.7258 13.608C75.0138 13.288 75.3924 13.0267 75.8618 12.824C76.3311 12.6213 76.8324 12.52 77.3658 12.52C78.3578 12.52 79.1578 12.7973 79.7658 13.352C80.3844 13.9067 80.6938 14.6853 80.6938 15.688V20.568C80.6938 20.6853 80.6511 20.7867 80.5658 20.872C80.4804 20.9573 80.3791 21 80.2618 21H79.6698C79.5524 21 79.4511 20.9573 79.3658 20.872C79.2804 20.7867 79.2378 20.6853 79.2378 20.568V19.912C79.0671 20.296 78.7044 20.6 78.1498 20.824C77.5951 21.048 77.0404 21.16 76.4858 21.16C75.9418 21.16 75.4564 21.064 75.0298 20.872C74.6031 20.6693 74.2724 20.3973 74.0378 20.056C73.8138 19.7147 73.7018 19.3307 73.7018 18.904C73.7018 18.104 74.0004 17.48 74.5978 17.032C75.1951 16.5733 75.9898 16.264 76.9818 16.104L79.2378 15.736ZM79.2378 17.016L77.3498 17.32C76.6564 17.4267 76.1178 17.6027 75.7338 17.848C75.3498 18.0827 75.1578 18.3813 75.1578 18.744C75.1578 19.0107 75.2804 19.2507 75.5258 19.464C75.7711 19.6773 76.1444 19.784 76.6458 19.784C77.4138 19.784 78.0378 19.5653 78.5178 19.128C78.9978 18.6907 79.2378 18.12 79.2378 17.416V17.016ZM91.5424 15.112C91.8837 14.8027 92.129 14.4987 92.2784 14.2C92.4277 13.9013 92.5024 13.5227 92.5024 13.064C92.5024 12.4667 92.3317 11.9867 91.9904 11.624C91.649 11.2613 91.1317 11.08 90.4384 11.08C89.7557 11.08 89.2437 11.2613 88.9024 11.624C88.561 11.976 88.3157 12.456 88.1664 13.064C88.1344 13.1813 88.081 13.272 88.0064 13.336C87.9317 13.4 87.8464 13.432 87.7504 13.432H87.0144C86.9184 13.432 86.833 13.4 86.7584 13.336C86.6944 13.2613 86.6624 13.176 86.6624 13.08C86.6837 12.536 86.8437 11.9973 87.1424 11.464C87.4517 10.9307 87.889 10.4933 88.4544 10.152C89.0197 9.81067 89.681 9.64 90.4384 9.64C91.1957 9.64 91.841 9.79467 92.3744 10.104C92.9184 10.4027 93.329 10.8133 93.6064 11.336C93.8837 11.848 94.0224 12.424 94.0224 13.064C94.0224 13.736 93.905 14.312 93.6704 14.792C93.4464 15.2613 93.057 15.7413 92.5024 16.232L88.9344 19.56H93.8304C93.9477 19.56 94.049 19.6027 94.1344 19.688C94.2197 19.7733 94.2624 19.8747 94.2624 19.992V20.568C94.2624 20.6853 94.2197 20.7867 94.1344 20.872C94.049 20.9573 93.9477 21 93.8304 21H86.9344C86.817 21 86.7157 20.9573 86.6304 20.872C86.545 20.7867 86.5024 20.6853 86.5024 20.568V19.992C86.5024 19.8747 86.5237 19.7787 86.5664 19.704C86.6197 19.6187 86.7157 19.512 86.8544 19.384L91.5424 15.112ZM106.43 12.68C106.547 12.68 106.648 12.7227 106.734 12.808C106.819 12.8933 106.862 12.9947 106.862 13.112V13.624C106.862 13.7413 106.819 13.8427 106.734 13.928C106.648 14.0133 106.547 14.056 106.43 14.056H103.662V20.568C103.662 20.6853 103.619 20.7867 103.534 20.872C103.448 20.9573 103.347 21 103.23 21H102.638C102.52 21 102.419 20.9573 102.334 20.872C102.248 20.7867 102.206 20.6853 102.206 20.568V14.056H99.4376C99.3203 14.056 99.219 14.0133 99.1336 13.928C99.0483 13.8427 99.0056 13.7413 99.0056 13.624V13.112C99.0056 12.9947 99.0483 12.8933 99.1336 12.808C99.219 12.7227 99.3203 12.68 99.4376 12.68H106.43ZM115.509 16.088C115.531 16.3227 115.541 16.5787 115.541 16.856C115.541 17.112 115.531 17.3573 115.509 17.592C115.413 18.68 115.035 19.5493 114.373 20.2C113.723 20.84 112.837 21.16 111.717 21.16C110.597 21.16 109.707 20.84 109.045 20.2C108.395 19.5493 108.021 18.68 107.925 17.592C107.915 17.4747 107.909 17.2293 107.909 16.856C107.909 16.4613 107.915 16.2053 107.925 16.088C108.011 15 108.384 14.136 109.045 13.496C109.707 12.8453 110.597 12.52 111.717 12.52C112.837 12.52 113.728 12.8453 114.389 13.496C115.051 14.136 115.424 15 115.509 16.088ZM114.053 16.168C113.989 15.4853 113.76 14.936 113.365 14.52C112.981 14.104 112.432 13.896 111.717 13.896C111.003 13.896 110.448 14.104 110.053 14.52C109.669 14.936 109.445 15.4853 109.381 16.168C109.371 16.296 109.365 16.5253 109.365 16.856C109.365 17.176 109.371 17.3947 109.381 17.512C109.445 18.1947 109.669 18.744 110.053 19.16C110.448 19.576 111.003 19.784 111.717 19.784C112.432 19.784 112.981 19.576 113.365 19.16C113.76 18.744 113.989 18.1947 114.053 17.512C114.075 17.2773 114.085 17.0587 114.085 16.856C114.085 16.6533 114.075 16.424 114.053 16.168ZM117.544 13C117.544 12.9147 117.576 12.84 117.64 12.776C117.704 12.712 117.778 12.68 117.864 12.68H121.832C122.738 12.68 123.448 12.8827 123.96 13.288C124.482 13.6933 124.744 14.232 124.744 14.904C124.744 15.3413 124.658 15.6933 124.488 15.96C124.317 16.216 124.082 16.456 123.784 16.68C124.2 16.9147 124.493 17.192 124.664 17.512C124.834 17.8213 124.92 18.1947 124.92 18.632C124.92 19.3787 124.658 19.96 124.136 20.376C123.613 20.792 122.904 21 122.008 21H117.864C117.778 21 117.704 20.968 117.64 20.904C117.576 20.84 117.544 20.7653 117.544 20.68V13ZM119 16.104H121.624C122.178 16.104 122.594 16.0293 122.872 15.88C123.149 15.72 123.288 15.448 123.288 15.064C123.288 14.68 123.144 14.4187 122.856 14.28C122.568 14.1413 122.13 14.072 121.544 14.072H119V16.104ZM119 19.608H121.704C122.877 19.608 123.464 19.2507 123.464 18.536C123.464 18.152 123.32 17.8853 123.032 17.736C122.744 17.576 122.317 17.496 121.752 17.496H119V19.608ZM131.894 15.736V15.528C131.894 15.0053 131.718 14.6053 131.366 14.328C131.025 14.04 130.577 13.896 130.022 13.896C129.595 13.896 129.259 13.9707 129.014 14.12C128.779 14.2587 128.555 14.472 128.342 14.76C128.278 14.8453 128.209 14.904 128.134 14.936C128.059 14.968 127.958 14.984 127.83 14.984H127.35C127.233 14.984 127.126 14.9413 127.03 14.856C126.945 14.7707 126.907 14.6693 126.918 14.552C126.95 14.232 127.105 13.9173 127.382 13.608C127.67 13.288 128.049 13.0267 128.518 12.824C128.987 12.6213 129.489 12.52 130.022 12.52C131.014 12.52 131.814 12.7973 132.422 13.352C133.041 13.9067 133.35 14.6853 133.35 15.688V20.568C133.35 20.6853 133.307 20.7867 133.222 20.872C133.137 20.9573 133.035 21 132.918 21H132.326C132.209 21 132.107 20.9573 132.022 20.872C131.937 20.7867 131.894 20.6853 131.894 20.568V19.912C131.723 20.296 131.361 20.6 130.806 20.824C130.251 21.048 129.697 21.16 129.142 21.16C128.598 21.16 128.113 21.064 127.686 20.872C127.259 20.6693 126.929 20.3973 126.694 20.056C126.47 19.7147 126.358 19.3307 126.358 18.904C126.358 18.104 126.657 17.48 127.254 17.032C127.851 16.5733 128.646 16.264 129.638 16.104L131.894 15.736ZM131.894 17.016L130.006 17.32C129.313 17.4267 128.774 17.6027 128.39 17.848C128.006 18.0827 127.814 18.3813 127.814 18.744C127.814 19.0107 127.937 19.2507 128.182 19.464C128.427 19.6773 128.801 19.784 129.302 19.784C130.07 19.784 130.694 19.5653 131.174 19.128C131.654 18.6907 131.894 18.12 131.894 17.416V17.016ZM137.14 23.608C137.14 23.7253 137.098 23.8267 137.012 23.912C136.927 23.9973 136.826 24.04 136.708 24.04H136.116C135.999 24.04 135.898 23.9973 135.812 23.912C135.727 23.8267 135.684 23.7253 135.684 23.608V13.112C135.684 12.9947 135.727 12.8933 135.812 12.808C135.898 12.7227 135.999 12.68 136.116 12.68H136.708C136.826 12.68 136.927 12.7227 137.012 12.808C137.098 12.8933 137.14 12.9947 137.14 13.112V13.608C137.684 12.8827 138.511 12.52 139.62 12.52C140.282 12.52 140.879 12.6747 141.412 12.984C141.956 13.2933 142.388 13.736 142.708 14.312C143.039 14.888 143.22 15.56 143.252 16.328C143.263 16.4347 143.268 16.6053 143.268 16.84C143.268 17.0853 143.263 17.2613 143.252 17.368C143.22 18.136 143.039 18.808 142.708 19.384C142.388 19.9493 141.962 20.3867 141.428 20.696C140.895 21.0053 140.292 21.16 139.62 21.16C139.023 21.16 138.516 21.0587 138.1 20.856C137.695 20.6427 137.375 20.3813 137.14 20.072V23.608ZM137.14 17.416C137.172 18.1627 137.396 18.744 137.812 19.16C138.228 19.576 138.778 19.784 139.46 19.784C140.154 19.784 140.703 19.56 141.108 19.112C141.524 18.664 141.754 18.056 141.796 17.288C141.807 17.1813 141.812 17.032 141.812 16.84C141.812 16.648 141.807 16.4987 141.796 16.392C141.754 15.624 141.524 15.016 141.108 14.568C140.703 14.12 140.154 13.896 139.46 13.896C138.799 13.896 138.255 14.104 137.828 14.52C137.402 14.9253 137.172 15.4693 137.14 16.152L137.124 16.776L137.14 17.416ZM150.191 15.736V15.528C150.191 15.0053 150.015 14.6053 149.663 14.328C149.322 14.04 148.874 13.896 148.319 13.896C147.892 13.896 147.556 13.9707 147.311 14.12C147.076 14.2587 146.852 14.472 146.639 14.76C146.575 14.8453 146.506 14.904 146.431 14.936C146.356 14.968 146.255 14.984 146.127 14.984H145.647C145.53 14.984 145.423 14.9413 145.327 14.856C145.242 14.7707 145.204 14.6693 145.215 14.552C145.247 14.232 145.402 13.9173 145.679 13.608C145.967 13.288 146.346 13.0267 146.815 12.824C147.284 12.6213 147.786 12.52 148.319 12.52C149.311 12.52 150.111 12.7973 150.719 13.352C151.338 13.9067 151.647 14.6853 151.647 15.688V20.568C151.647 20.6853 151.604 20.7867 151.519 20.872C151.434 20.9573 151.332 21 151.215 21H150.623C150.506 21 150.404 20.9573 150.319 20.872C150.234 20.7867 150.191 20.6853 150.191 20.568V19.912C150.02 20.296 149.658 20.6 149.103 20.824C148.548 21.048 147.994 21.16 147.439 21.16C146.895 21.16 146.41 21.064 145.983 20.872C145.556 20.6693 145.226 20.3973 144.991 20.056C144.767 19.7147 144.655 19.3307 144.655 18.904C144.655 18.104 144.954 17.48 145.551 17.032C146.148 16.5733 146.943 16.264 147.935 16.104L150.191 15.736ZM150.191 17.016L148.303 17.32C147.61 17.4267 147.071 17.6027 146.687 17.848C146.303 18.0827 146.111 18.3813 146.111 18.744C146.111 19.0107 146.234 19.2507 146.479 19.464C146.724 19.6773 147.098 19.784 147.599 19.784C148.367 19.784 148.991 19.5653 149.471 19.128C149.951 18.6907 150.191 18.12 150.191 17.416V17.016Z" fill="white"/>
</svg>
