<svg width="53" height="32" viewBox="0 0 53 32" fill="none" xmlns="http://www.w3.org/2000/svg">
<rect width="53" height="32" rx="4" fill="#FF6633"/>
<path d="M9.645 16.888C9.52767 16.888 9.42633 16.8453 9.341 16.76C9.25567 16.6747 9.213 16.5733 9.213 16.456V15.944C9.213 15.8267 9.25567 15.7253 9.341 15.64C9.42633 15.5547 9.52767 15.512 9.645 15.512H14.365C14.4823 15.512 14.5837 15.5547 14.669 15.64C14.7543 15.7253 14.797 15.8267 14.797 15.944V16.456C14.797 16.5733 14.7543 16.6747 14.669 16.76C14.5837 16.8453 14.4823 16.888 14.365 16.888H9.645ZM21.4426 20.568C21.4426 20.6853 21.4 20.7867 21.3146 20.872C21.2293 20.9573 21.128 21 21.0106 21H20.3546C20.2373 21 20.136 20.9573 20.0506 20.872C19.9653 20.7867 19.9226 20.6853 19.9226 20.568V11.752L17.3306 13.72C17.256 13.784 17.1653 13.816 17.0586 13.816C16.92 13.816 16.808 13.7627 16.7226 13.656L16.3386 13.16C16.2746 13.0747 16.2426 12.984 16.2426 12.888C16.2426 12.7493 16.3013 12.6373 16.4186 12.552L19.8426 9.928C19.96 9.84267 20.1306 9.8 20.3546 9.8H21.0106C21.128 9.8 21.2293 9.84267 21.3146 9.928C21.4 10.0133 21.4426 10.1147 21.4426 10.232V20.568ZM27.361 19.72C28.097 19.72 28.705 19.5227 29.185 19.128C29.665 18.7227 29.905 18.1467 29.905 17.4C29.905 16.6533 29.665 16.0827 29.185 15.688C28.705 15.2827 28.097 15.08 27.361 15.08C26.9237 15.08 26.5823 15.1333 26.337 15.24C26.0917 15.336 25.8463 15.4693 25.601 15.64C25.473 15.736 25.361 15.8107 25.265 15.864C25.1797 15.9067 25.0783 15.928 24.961 15.928H24.145C24.049 15.928 23.9637 15.896 23.889 15.832C23.825 15.7573 23.793 15.672 23.793 15.576L24.273 10.232C24.273 10.1147 24.3157 10.0133 24.401 9.928C24.4863 9.84267 24.5877 9.8 24.705 9.8H30.353C30.4703 9.8 30.5717 9.84267 30.657 9.928C30.7423 10.0133 30.785 10.1147 30.785 10.232V10.808C30.785 10.9253 30.7423 11.0267 30.657 11.112C30.5717 11.1973 30.4703 11.24 30.353 11.24H25.697L25.441 14.008C25.985 13.7627 26.625 13.64 27.361 13.64C28.1183 13.64 28.801 13.7947 29.409 14.104C30.0277 14.4027 30.5183 14.84 30.881 15.416C31.2437 15.9813 31.425 16.6427 31.425 17.4C31.425 18.1573 31.2437 18.824 30.881 19.4C30.5183 19.9653 30.0277 20.4027 29.409 20.712C28.801 21.0107 28.1183 21.16 27.361 21.16C26.657 21.16 25.9957 21.032 25.377 20.776C24.7583 20.5093 24.2623 20.1413 23.889 19.672C23.5157 19.2027 23.3237 18.6747 23.313 18.088C23.313 17.992 23.345 17.912 23.409 17.848C23.4837 17.7733 23.569 17.736 23.665 17.736H24.401C24.497 17.736 24.5823 17.768 24.657 17.832C24.7317 17.896 24.785 17.9813 24.817 18.088C24.9557 18.5787 25.2597 18.9733 25.729 19.272C26.1983 19.5707 26.7423 19.72 27.361 19.72ZM37.517 11.944C37.5383 12.328 37.549 12.5573 37.549 12.632C37.549 12.696 37.5383 12.9093 37.517 13.272C37.485 13.944 37.2663 14.4827 36.861 14.888C36.4663 15.2827 35.9063 15.48 35.181 15.48C34.4557 15.48 33.8903 15.2827 33.485 14.888C33.0903 14.4827 32.877 13.944 32.845 13.272C32.8343 13.0907 32.829 12.8773 32.829 12.632C32.829 12.3653 32.8343 12.136 32.845 11.944C32.877 11.272 33.0903 10.7333 33.485 10.328C33.8903 9.92267 34.4557 9.72 35.181 9.72C35.9063 9.72 36.4663 9.92267 36.861 10.328C37.2663 10.7333 37.485 11.272 37.517 11.944ZM41.645 10.104C41.7303 9.99733 41.8103 9.92267 41.885 9.88C41.9703 9.82667 42.0823 9.8 42.221 9.8H42.829C42.9463 9.8 43.037 9.832 43.101 9.896C43.1757 9.94933 43.213 10.024 43.213 10.12C43.213 10.184 43.1917 10.2427 43.149 10.296L35.245 20.696C35.1597 20.8027 35.0743 20.8827 34.989 20.936C34.9143 20.9787 34.8077 21 34.669 21H34.061C33.9437 21 33.8477 20.9733 33.773 20.92C33.709 20.856 33.677 20.776 33.677 20.68C33.677 20.616 33.6983 20.5573 33.741 20.504L41.645 10.104ZM35.181 10.872C34.829 10.872 34.5623 10.9787 34.381 11.192C34.1997 11.4053 34.0983 11.672 34.077 11.992C34.0663 12.1733 34.061 12.376 34.061 12.6C34.061 12.8133 34.0663 13.0213 34.077 13.224C34.0983 13.544 34.1997 13.8107 34.381 14.024C34.5623 14.2267 34.829 14.328 35.181 14.328C35.533 14.328 35.7997 14.2267 35.981 14.024C36.1623 13.8107 36.2637 13.544 36.285 13.224C36.3063 12.8187 36.317 12.6107 36.317 12.6C36.317 12.5573 36.3063 12.3547 36.285 11.992C36.2637 11.672 36.1623 11.4053 35.981 11.192C35.7997 10.9787 35.533 10.872 35.181 10.872ZM44.157 17.544C44.1783 17.928 44.189 18.1573 44.189 18.232C44.189 18.296 44.1783 18.5093 44.157 18.872C44.125 19.544 43.9063 20.0827 43.501 20.488C43.1063 20.8827 42.5463 21.08 41.821 21.08C41.0957 21.08 40.5303 20.8827 40.125 20.488C39.7303 20.0827 39.517 19.544 39.485 18.872C39.4743 18.6907 39.469 18.4773 39.469 18.232C39.469 17.9653 39.4743 17.736 39.485 17.544C39.517 16.872 39.7303 16.3333 40.125 15.928C40.5303 15.5227 41.0957 15.32 41.821 15.32C42.5463 15.32 43.1063 15.5227 43.501 15.928C43.9063 16.3333 44.125 16.872 44.157 17.544ZM41.821 16.472C41.469 16.472 41.2023 16.5787 41.021 16.792C40.8397 17.0053 40.7383 17.272 40.717 17.592C40.7063 17.7733 40.701 17.976 40.701 18.2C40.701 18.4133 40.7063 18.6213 40.717 18.824C40.7383 19.144 40.8397 19.4107 41.021 19.624C41.2023 19.8267 41.469 19.928 41.821 19.928C42.173 19.928 42.4397 19.8267 42.621 19.624C42.8023 19.4107 42.9037 19.144 42.925 18.824C42.9463 18.4187 42.957 18.2107 42.957 18.2C42.957 18.1573 42.9463 17.9547 42.925 17.592C42.9037 17.272 42.8023 17.0053 42.621 16.792C42.4397 16.5787 42.173 16.472 41.821 16.472Z" fill="white"/>
</svg>
